# xmcd
#
# Track frame offsets:
#   150
#   11914
#   26249
#   40011
#   54964
#   66591
#   79012
#   93671
#   108402
#   119926
#   132901
#   148082
#   162383
#   177213
#   190943
#
# Disc length: 2724 seconds
#
# Revision: 0
# Processed by: cddbd v1.5.2PL0 Copyright (c) Steve Scherf et al.
# Submitted via: uFREEDB ActiveX Control 1.5
#
DISCID=dd0aa20f
DTITLE=Fernando e Sorocaba - Homens e Anjos
DYEAR=2013
DGENRE=Country
TTITLE0=Deixa falar
TTITLE1=Imagina na Copa
TTITLE2=Mô
TTITLE3=Praia brava
TTITLE4=Caras e bocas
TTITLE5=Veneno
TTITLE6=Homens e anjos
TTITLE7=O que cê vai fazer
TTITLE8=Musa do Timão
TTITLE9=Minha ex
TTITLE10=Face da Lua
TTITLE11=A Vingança
TTITLE12=Lágrimas negras
TTITLE13=Livre (faixa Bônus)
TTITLE14=As mina pira (Faixa Bônus)
EXTD=
EXTT0=
EXTT1=
EXTT2=
EXTT3=
EXTT4=
EXTT5=
EXTT6=
EXTT7=
EXTT8=
EXTT9=
EXTT10=
EXTT11=
EXTT12=
EXTT13=
EXTT14=
PLAYORDER=
